<svg width="24" height="24" viewBox="0 0 24 24" fill="none" xmlns="http://www.w3.org/2000/svg">
<path d="M12 10.65L6.35001 5.00001L13 0.850006L19.15 5.00001L12 10.65Z" fill="#FF8A65"/>
<path d="M12 10.65L6.35001 5.00001L8.50001 2.35001L19.15 5.00001L12 10.65Z" fill="#FFAB91"/>
<path d="M15.3 22H8.7C7.7 22 6.85 21.3 6.7 20.3L4.5 5.5H19.5L17.25 20.3C17.1 21.3 16.25 22 15.3 22Z" fill="#B39DDB"/>
<path d="M19 6.5H5C4.45 6.5 4 6.05 4 5.5C4 4.95 4.45 4.5 5 4.5H19C19.55 4.5 20 4.95 20 5.5C20 6.05 19.55 6.5 19 6.5Z" fill="#7E57C2"/>
</svg>
